<?xml version="1.0" encoding="UTF-8"?><svg id="Layer_1" xmlns="http://www.w3.org/2000/svg" viewBox="0 0 110 24"><defs><style>.cls-1{font-family:Roboto-Medium, Roboto;font-size:18.49px;font-weight:500;letter-spacing:-.03em;}.cls-1,.cls-2{fill:#fff;}.cls-2{stroke-width:0px;}</style></defs><text class="cls-1" transform="translate(28.9 17.4)"><tspan x="0" y="0">Repriced</tspan></text><path class="cls-2" d="m18.21,5.87c-.49.51-.95,1-1.42,1.47-.56.56-1.14,1.12-1.71,1.67-.27.26-.47.51-.45.93.03.73.02,1.47,0,2.2,0,.28.08.34.34.34,1.6,0,3.19,0,4.79,0,.5,0,.54.05.54.56,0,.4,0,.8,0,1.21,0,.3-.1.46-.43.46-2.35,0-4.7,0-7.06,0-.28,0-.4-.09-.4-.39,0-1.83,0-3.67.02-5.5,0-.24.21-.5.39-.69.67-.7,1.36-1.38,2.06-2.06.57-.56,1.15-1.1,1.72-1.66.4-.39.8-.78,1.18-1.19.29-.31.58-.35.88-.05.67.65,1.32,1.32,1.99,1.96.53.51,1.09.97,1.61,1.49.68.67,1.33,1.36,1.99,2.06.06.06.07.19.07.29,0,1.79,0,3.57,0,5.36,0,.31-.12.39-.4.38-.53-.01-1.06-.01-1.6,0-.32,0-.43-.1-.43-.43.02-1.32-.03-2.65.03-3.97.03-.65-.21-1.07-.67-1.48-.8-.72-1.55-1.48-2.33-2.23-.24-.23-.48-.45-.75-.71Z"/><path class="cls-2" d="m18.26,16.68c.73,0,1.46,0,2.2,0,.13,0,.29.02.4.09.3.17.27.27.03.52-.38.39-.72.82-1.09,1.23-.45.49-.91.97-1.39,1.43-.04.04-.24.01-.3-.05-.72-.78-1.44-1.57-2.14-2.37-.15-.16-.3-.34-.38-.54-.1-.26.12-.31.33-.31.78,0,1.56,0,2.34,0Z"/></svg>