<?xml version="1.0" encoding="UTF-8"?><svg id="Layer_1" xmlns="http://www.w3.org/2000/svg" viewBox="0 0 110 24"><defs><style>.cls-1{font-family:Roboto-Bold, Roboto;font-size:19.93px;font-weight:700;letter-spacing:0em;}.cls-2{fill:#52cc60;}.cls-2,.cls-3{stroke-width:0px;}.cls-3{fill:#fff;}</style></defs><text class="cls-1" transform="translate(27.52 17.82)"><tspan x="0" y="0">Repriced</tspan></text><rect class="cls-2" x="3.93" y="2.12" width="20.32" height="19.37" rx="9.54" ry="9.54"/><path class="cls-3" d="m13.93,6.48c-.47.48-.9.95-1.35,1.4-.54.54-1.08,1.06-1.63,1.59-.25.24-.45.49-.43.88.03.7.02,1.4,0,2.09,0,.26.08.32.33.32,1.52,0,3.04,0,4.56,0,.47,0,.52.05.52.53,0,.38,0,.77,0,1.15,0,.29-.09.44-.41.43-2.24,0-4.48,0-6.72,0-.27,0-.38-.09-.38-.37,0-1.75,0-3.49.02-5.24,0-.22.2-.48.37-.66.64-.67,1.3-1.31,1.96-1.96.54-.53,1.09-1.05,1.64-1.58.38-.37.76-.74,1.13-1.13.28-.29.55-.33.84-.05.64.62,1.25,1.25,1.89,1.87.5.48,1.04.93,1.54,1.42.65.64,1.27,1.3,1.89,1.96.06.06.07.18.07.28,0,1.7,0,3.4,0,5.1,0,.29-.11.37-.38.36-.51-.01-1.01-.01-1.52,0-.3,0-.41-.1-.41-.41.02-1.26-.03-2.52.03-3.78.03-.62-.2-1.02-.64-1.41-.76-.68-1.48-1.41-2.22-2.12-.23-.22-.45-.43-.71-.68Z"/><path class="cls-3" d="m13.97,16.77c.7,0,1.39,0,2.09,0,.13,0,.27.02.38.08.29.17.26.25.03.49-.36.37-.68.78-1.04,1.17-.43.46-.87.92-1.32,1.37-.04.04-.23.01-.28-.04-.69-.75-1.37-1.5-2.04-2.26-.14-.16-.29-.33-.36-.52-.09-.25.11-.29.31-.29.74,0,1.48,0,2.23,0Z"/></svg>