<?xml version="1.0" encoding="UTF-8"?>
<svg id="Layer_1" data-name="Layer 1" xmlns="http://www.w3.org/2000/svg" viewBox="0 0 102 30">
  <g>
    <path d="M27.73,15.46h-2.9v5.77h-2.61V6.23h5.27c1.73,0,3.07.39,4.01,1.16.94.78,1.41,1.9,1.41,3.37,0,1-.24,1.84-.73,2.52-.48.68-1.16,1.2-2.02,1.56l3.37,6.24v.13h-2.79l-3.01-5.77ZM24.83,13.36h2.68c.88,0,1.57-.22,2.06-.67.49-.44.74-1.05.74-1.82s-.23-1.43-.69-1.87-1.14-.67-2.04-.68h-2.75v5.03Z" fill="#4d4d4d"/>
    <path d="M39.42,21.43c-1.59,0-2.87-.5-3.86-1.5-.99-1-1.48-2.33-1.48-3.99v-.31c0-1.11.21-2.11.64-2.98.43-.88,1.03-1.56,1.81-2.04.78-.49,1.64-.73,2.6-.73,1.52,0,2.69.48,3.52,1.45.83.97,1.24,2.34,1.24,4.11v1.01h-7.28c.08.92.38,1.65.92,2.18s1.22.8,2.03.8c1.15,0,2.08-.46,2.8-1.39l1.35,1.29c-.45.67-1.04,1.18-1.79,1.55s-1.58.55-2.51.55ZM39.12,11.88c-.69,0-1.24.24-1.66.72-.42.48-.69,1.15-.81,2.01h4.77v-.19c-.06-.84-.28-1.47-.67-1.9-.39-.43-.93-.64-1.63-.64Z" fill="#4d4d4d"/>
    <path d="M54.96,15.77c0,1.72-.39,3.1-1.17,4.12-.78,1.03-1.83,1.54-3.15,1.54-1.22,0-2.2-.4-2.94-1.21v5.29h-2.5v-15.43h2.31l.1,1.13c.73-.89,1.73-1.34,3-1.34,1.36,0,2.43.51,3.2,1.52s1.16,2.42,1.16,4.22v.15ZM52.47,15.55c0-1.11-.22-1.99-.66-2.65-.44-.65-1.08-.98-1.9-.98-1.02,0-1.76.42-2.2,1.27v4.95c.45.87,1.19,1.3,2.23,1.3.8,0,1.42-.32,1.87-.96s.67-1.62.67-2.92Z" fill="#4d4d4d"/>
    <path d="M62.28,12.37c-.33-.05-.67-.08-1.02-.08-1.15,0-1.92.44-2.32,1.32v7.62h-2.5v-11.15h2.39l.06,1.25c.6-.97,1.44-1.45,2.51-1.45.36,0,.65.05.89.14v2.35Z" fill="#4d4d4d"/>
    <path d="M63.23,7.19c0-.38.12-.71.37-.96.24-.25.59-.38,1.05-.38s.8.13,1.05.38c.25.25.37.57.37.96s-.12.69-.37.94c-.25.25-.6.38-1.05.38s-.8-.13-1.05-.38c-.24-.25-.37-.56-.37-.94ZM65.89,21.22h-2.5v-11.15h2.5v11.15Z" fill="#4d4d4d"/>
    <path d="M72.56,19.43c.62,0,1.14-.18,1.56-.54.41-.37.63-.81.66-1.35h2.36c-.03.69-.24,1.34-.65,1.94-.41.6-.95,1.08-1.65,1.43-.69.35-1.44.53-2.25.53-1.56,0-2.8-.5-3.71-1.51s-1.37-2.4-1.37-4.18v-.26c0-1.7.45-3.05,1.36-4.07.91-1.02,2.14-1.53,3.71-1.53,1.33,0,2.41.39,3.24,1.16.83.77,1.27,1.79,1.31,3.04h-2.36c-.03-.64-.25-1.16-.65-1.58s-.93-.62-1.56-.62c-.81,0-1.44.29-1.87.88-.44.59-.66,1.48-.67,2.67v.4c0,1.21.22,2.11.65,2.7s1.07.89,1.89.89Z" fill="#4d4d4d"/>
    <path d="M83.3,21.43c-1.59,0-2.87-.5-3.86-1.5-.99-1-1.48-2.33-1.48-3.99v-.31c0-1.11.21-2.11.64-2.98.43-.88,1.03-1.56,1.81-2.04.78-.49,1.64-.73,2.6-.73,1.52,0,2.69.48,3.52,1.45.83.97,1.24,2.34,1.24,4.11v1.01h-7.28c.08.92.38,1.65.92,2.18s1.22.8,2.03.8c1.15,0,2.08-.46,2.8-1.39l1.35,1.29c-.45.67-1.04,1.18-1.79,1.55s-1.58.55-2.51.55ZM83,11.88c-.69,0-1.24.24-1.66.72-.42.48-.69,1.15-.81,2.01h4.77v-.19c-.06-.84-.28-1.47-.67-1.9-.39-.43-.93-.64-1.63-.64Z" fill="#4d4d4d"/>
    <path d="M88.61,15.57c0-1.72.4-3.09,1.19-4.13.8-1.04,1.86-1.56,3.2-1.56,1.18,0,2.14.41,2.86,1.24v-5.71h2.5v15.82h-2.27l-.12-1.15c-.75.91-1.75,1.36-3,1.36s-2.36-.53-3.17-1.58c-.81-1.05-1.21-2.48-1.21-4.29ZM91.11,15.79c0,1.13.22,2.02.65,2.65s1.06.95,1.86.95c1.02,0,1.77-.46,2.25-1.37v-4.76c-.46-.89-1.2-1.34-2.23-1.34-.81,0-1.44.32-1.87.96-.44.64-.66,1.61-.66,2.9Z" fill="#4d4d4d"/>
  </g>
  <g>
    <path d="M9.91,9.07c-.56.58-1.08,1.14-1.62,1.68-.64.64-1.3,1.28-1.95,1.9-.31.29-.53.59-.51,1.06.04.83.02,1.67,0,2.51,0,.31.1.39.39.39,1.82-.01,3.64,0,5.46,0,.57,0,.62.06.62.63,0,.46,0,.92,0,1.38,0,.34-.11.52-.49.52-2.68,0-5.37,0-8.05,0-.32,0-.45-.1-.45-.44.01-2.09-.01-4.18.03-6.27,0-.27.24-.57.45-.79.76-.8,1.56-1.57,2.35-2.34.65-.64,1.31-1.26,1.96-1.89.46-.45.91-.89,1.35-1.36.33-.35.66-.4,1.01-.06.76.74,1.5,1.5,2.27,2.24.6.58,1.25,1.11,1.84,1.7.77.76,1.52,1.56,2.27,2.35.07.07.09.22.09.33,0,2.04,0,4.07,0,6.11,0,.35-.13.44-.45.43-.61-.02-1.21-.02-1.82,0-.36.01-.5-.12-.49-.49.02-1.51-.03-3.02.03-4.53.03-.74-.24-1.22-.76-1.69-.91-.82-1.77-1.69-2.66-2.54-.27-.26-.55-.52-.85-.81Z" fill="#4d4d4d"/>
    <path d="M9.96,21.41c.84,0,1.67,0,2.51,0,.15,0,.33.03.46.1.34.2.31.3.03.59-.44.44-.82.94-1.24,1.4-.51.56-1.04,1.1-1.58,1.64-.05.05-.27.02-.34-.05-.82-.89-1.64-1.8-2.45-2.71-.17-.19-.35-.39-.43-.62-.11-.3.14-.35.37-.35.89,0,1.78,0,2.67,0Z" fill="#4d4d4d"/>
  </g>
  <g>
    <path d="M9.91,8.95c-.56.58-1.08,1.14-1.62,1.68-.64.64-1.3,1.28-1.95,1.9-.31.29-.53.59-.51,1.06.04.83.02,1.67,0,2.51,0,.31.1.39.39.39,1.82-.01,3.64,0,5.46,0,.57,0,.62.06.62.63,0,.46,0,.92,0,1.38,0,.34-.11.52-.49.52-2.68,0-5.37,0-8.05,0-.32,0-.45-.1-.45-.44.01-2.09-.01-4.18.03-6.27,0-.27.24-.57.45-.79.76-.8,1.56-1.57,2.35-2.34.65-.64,1.31-1.26,1.96-1.89.46-.45.91-.89,1.35-1.36.33-.35.66-.4,1.01-.06.76.74,1.5,1.5,2.27,2.24.6.58,1.25,1.11,1.84,1.7.77.76,1.52,1.56,2.27,2.35.07.07.09.22.09.33,0,2.04,0,4.07,0,6.11,0,.35-.13.44-.45.43-.61-.02-1.21-.02-1.82,0-.36.01-.5-.12-.49-.49.02-1.51-.03-3.02.03-4.53.03-.74-.24-1.22-.76-1.69-.91-.82-1.77-1.69-2.66-2.54-.27-.26-.55-.52-.85-.81Z" fill="#4d4d4d"/>
    <path d="M9.96,21.29c.84,0,1.67,0,2.51,0,.15,0,.33.03.46.1.34.2.31.3.03.59-.44.44-.82.94-1.24,1.4-.51.56-1.04,1.1-1.58,1.64-.05.05-.27.02-.34-.05-.82-.89-1.64-1.8-2.45-2.71-.17-.19-.35-.39-.43-.62-.11-.3.14-.35.37-.35.89,0,1.78,0,2.67,0Z" fill="#4d4d4d"/>
  </g>
  <g>
    <path d="M27.73,15.46h-2.9v5.77h-2.61V6.23h5.27c1.73,0,3.07.39,4.01,1.16.94.78,1.41,1.9,1.41,3.37,0,1-.24,1.84-.73,2.52-.48.68-1.16,1.2-2.02,1.56l3.37,6.24v.13h-2.79l-3.01-5.77ZM24.83,13.36h2.68c.88,0,1.57-.22,2.06-.67.49-.44.74-1.05.74-1.82s-.23-1.43-.69-1.87-1.14-.67-2.04-.68h-2.75v5.03Z" fill="#52cc60"/>
    <path d="M39.42,21.43c-1.59,0-2.87-.5-3.86-1.5-.99-1-1.48-2.33-1.48-3.99v-.31c0-1.11.21-2.11.64-2.98.43-.88,1.03-1.56,1.81-2.04.78-.49,1.64-.73,2.6-.73,1.52,0,2.69.48,3.52,1.45.83.97,1.24,2.34,1.24,4.11v1.01h-7.28c.08.92.38,1.65.92,2.18s1.22.8,2.03.8c1.15,0,2.08-.46,2.8-1.39l1.35,1.29c-.45.67-1.04,1.18-1.79,1.55s-1.58.55-2.51.55ZM39.12,11.88c-.69,0-1.24.24-1.66.72-.42.48-.69,1.15-.81,2.01h4.77v-.19c-.06-.84-.28-1.47-.67-1.9-.39-.43-.93-.64-1.63-.64Z" fill="#52cc60"/>
    <path d="M54.96,15.77c0,1.72-.39,3.1-1.17,4.12-.78,1.03-1.83,1.54-3.15,1.54-1.22,0-2.2-.4-2.94-1.21v5.29h-2.5v-15.43h2.31l.1,1.13c.73-.89,1.73-1.34,3-1.34,1.36,0,2.43.51,3.2,1.52s1.16,2.42,1.16,4.22v.15ZM52.47,15.55c0-1.11-.22-1.99-.66-2.65-.44-.65-1.08-.98-1.9-.98-1.02,0-1.76.42-2.2,1.27v4.95c.45.87,1.19,1.3,2.23,1.3.8,0,1.42-.32,1.87-.96s.67-1.62.67-2.92Z" fill="#52cc60"/>
    <path d="M62.28,12.37c-.33-.05-.67-.08-1.02-.08-1.15,0-1.92.44-2.32,1.32v7.62h-2.5v-11.15h2.39l.06,1.25c.6-.97,1.44-1.45,2.51-1.45.36,0,.65.05.89.14v2.35Z" fill="#52cc60"/>
    <path d="M63.23,7.19c0-.38.12-.71.37-.96.24-.25.59-.38,1.05-.38s.8.13,1.05.38c.25.25.37.57.37.96s-.12.69-.37.94c-.25.25-.6.38-1.05.38s-.8-.13-1.05-.38c-.24-.25-.37-.56-.37-.94ZM65.89,21.22h-2.5v-11.15h2.5v11.15Z" fill="#52cc60"/>
    <path d="M72.56,19.43c.62,0,1.14-.18,1.56-.54.41-.37.63-.81.66-1.35h2.36c-.03.69-.24,1.34-.65,1.94-.41.6-.95,1.08-1.65,1.43-.69.35-1.44.53-2.25.53-1.56,0-2.8-.5-3.71-1.51s-1.37-2.4-1.37-4.18v-.26c0-1.7.45-3.05,1.36-4.07.91-1.02,2.14-1.53,3.71-1.53,1.33,0,2.41.39,3.24,1.16.83.77,1.27,1.79,1.31,3.04h-2.36c-.03-.64-.25-1.16-.65-1.58s-.93-.62-1.56-.62c-.81,0-1.44.29-1.87.88-.44.59-.66,1.48-.67,2.67v.4c0,1.21.22,2.11.65,2.7s1.07.89,1.89.89Z" fill="#52cc60"/>
    <path d="M83.3,21.43c-1.59,0-2.87-.5-3.86-1.5-.99-1-1.48-2.33-1.48-3.99v-.31c0-1.11.21-2.11.64-2.98.43-.88,1.03-1.56,1.81-2.04.78-.49,1.64-.73,2.6-.73,1.52,0,2.69.48,3.52,1.45.83.97,1.24,2.34,1.24,4.11v1.01h-7.28c.08.92.38,1.65.92,2.18s1.22.8,2.03.8c1.15,0,2.08-.46,2.8-1.39l1.35,1.29c-.45.67-1.04,1.18-1.79,1.55s-1.58.55-2.51.55ZM83,11.88c-.69,0-1.24.24-1.66.72-.42.48-.69,1.15-.81,2.01h4.77v-.19c-.06-.84-.28-1.47-.67-1.9-.39-.43-.93-.64-1.63-.64Z" fill="#52cc60"/>
    <path d="M88.61,15.57c0-1.72.4-3.09,1.19-4.13.8-1.04,1.86-1.56,3.2-1.56,1.18,0,2.14.41,2.86,1.24v-5.71h2.5v15.82h-2.27l-.12-1.15c-.75.91-1.75,1.36-3,1.36s-2.36-.53-3.17-1.58c-.81-1.05-1.21-2.48-1.21-4.29ZM91.11,15.79c0,1.13.22,2.02.65,2.65s1.06.95,1.86.95c1.02,0,1.77-.46,2.25-1.37v-4.76c-.46-.89-1.2-1.34-2.23-1.34-.81,0-1.44.32-1.87.96-.44.64-.66,1.61-.66,2.9Z" fill="#52cc60"/>
  </g>
  <g>
    <path d="M9.91,8.95c-.56.58-1.08,1.14-1.62,1.68-.64.64-1.3,1.28-1.95,1.9-.31.29-.53.59-.51,1.06.04.83.02,1.67,0,2.51,0,.31.1.39.39.39,1.82-.01,3.64,0,5.46,0,.57,0,.62.06.62.63,0,.46,0,.92,0,1.38,0,.34-.11.52-.49.52-2.68,0-5.37,0-8.05,0-.32,0-.45-.1-.45-.44.01-2.09-.01-4.18.03-6.27,0-.27.24-.57.45-.79.76-.8,1.56-1.57,2.35-2.34.65-.64,1.31-1.26,1.96-1.89.46-.45.91-.89,1.35-1.36.33-.35.66-.4,1.01-.06.76.74,1.5,1.5,2.27,2.24.6.58,1.25,1.11,1.84,1.7.77.76,1.52,1.56,2.27,2.35.07.07.09.22.09.33,0,2.04,0,4.07,0,6.11,0,.35-.13.44-.45.43-.61-.02-1.21-.02-1.82,0-.36.01-.5-.12-.49-.49.02-1.51-.03-3.02.03-4.53.03-.74-.24-1.22-.76-1.69-.91-.82-1.77-1.69-2.66-2.54-.27-.26-.55-.52-.85-.81Z" fill="#52cc60"/>
    <path d="M9.96,21.29c.84,0,1.67,0,2.51,0,.15,0,.33.03.46.1.34.2.31.3.03.59-.44.44-.82.94-1.24,1.4-.51.56-1.04,1.1-1.58,1.64-.05.05-.27.02-.34-.05-.82-.89-1.64-1.8-2.45-2.71-.17-.19-.35-.39-.43-.62-.11-.3.14-.35.37-.35.89,0,1.78,0,2.67,0Z" fill="#52cc60"/>
  </g>
  <g>
    <path d="M27.73,15.34h-2.9v5.77h-2.61V6.11h5.27c1.73,0,3.07.39,4.01,1.16s1.41,1.9,1.41,3.37c0,1-.24,1.84-.73,2.52-.48.68-1.16,1.2-2.02,1.56l3.37,6.25v.13h-2.79l-3.01-5.77ZM24.83,13.24h2.68c.88,0,1.57-.22,2.06-.66.49-.44.74-1.05.74-1.82s-.23-1.42-.69-1.87c-.46-.44-1.14-.67-2.04-.68h-2.75v5.03Z" fill="#52cc60"/>
    <path d="M39.42,21.31c-1.59,0-2.87-.5-3.86-1.5-.99-1-1.48-2.33-1.48-3.99v-.31c0-1.11.21-2.11.64-2.98s1.03-1.56,1.81-2.04c.78-.49,1.64-.73,2.6-.73,1.52,0,2.69.48,3.52,1.45.83.97,1.24,2.34,1.24,4.11v1.01h-7.28c.08.92.38,1.65.92,2.18s1.22.8,2.03.8c1.15,0,2.08-.46,2.8-1.39l1.35,1.29c-.45.67-1.04,1.18-1.79,1.55s-1.58.55-2.51.55ZM39.12,11.76c-.69,0-1.24.24-1.66.72s-.69,1.15-.81,2.01h4.77v-.18c-.06-.84-.28-1.47-.67-1.9-.39-.43-.93-.64-1.63-.64Z" fill="#52cc60"/>
    <path d="M54.96,15.65c0,1.72-.39,3.1-1.17,4.12-.78,1.03-1.83,1.54-3.15,1.54-1.22,0-2.2-.4-2.94-1.21v5.28h-2.5v-15.43h2.31l.1,1.13c.73-.89,1.73-1.34,3-1.34,1.36,0,2.43.51,3.2,1.52.77,1.01,1.16,2.42,1.16,4.22v.15ZM52.47,15.43c0-1.11-.22-1.99-.66-2.65-.44-.65-1.08-.98-1.9-.98-1.02,0-1.76.42-2.2,1.27v4.94c.45.87,1.19,1.3,2.23,1.3.8,0,1.42-.32,1.87-.96.45-.64.67-1.62.67-2.92Z" fill="#52cc60"/>
    <path d="M62.28,12.25c-.33-.05-.67-.08-1.02-.08-1.15,0-1.92.44-2.32,1.32v7.62h-2.5v-11.14h2.39l.06,1.25c.6-.97,1.44-1.45,2.51-1.45.36,0,.65.05.89.14v2.35Z" fill="#52cc60"/>
    <path d="M63.23,7.07c0-.38.12-.7.37-.96.24-.25.59-.38,1.05-.38s.8.13,1.05.38c.25.25.37.57.37.96s-.12.69-.37.94c-.25.25-.6.38-1.05.38s-.8-.12-1.05-.38c-.24-.25-.37-.57-.37-.94ZM65.89,21.11h-2.5v-11.14h2.5v11.14Z" fill="#52cc60"/>
    <path d="M72.56,19.31c.62,0,1.14-.18,1.56-.55.41-.36.63-.81.66-1.35h2.36c-.03.69-.24,1.34-.65,1.94-.41.6-.95,1.08-1.65,1.43-.69.35-1.44.53-2.25.53-1.56,0-2.8-.51-3.71-1.52-.91-1.01-1.37-2.4-1.37-4.18v-.26c0-1.7.45-3.05,1.36-4.07.91-1.02,2.14-1.53,3.71-1.53,1.33,0,2.41.39,3.24,1.16.83.77,1.27,1.79,1.31,3.04h-2.36c-.03-.64-.25-1.16-.65-1.58s-.93-.62-1.56-.62c-.81,0-1.44.29-1.87.88-.44.59-.66,1.48-.67,2.67v.4c0,1.21.22,2.11.65,2.7.44.6,1.07.89,1.89.89Z" fill="#52cc60"/>
    <path d="M83.3,21.31c-1.59,0-2.87-.5-3.86-1.5-.99-1-1.48-2.33-1.48-3.99v-.31c0-1.11.21-2.11.64-2.98s1.03-1.56,1.81-2.04c.78-.49,1.64-.73,2.6-.73,1.52,0,2.69.48,3.52,1.45.83.97,1.24,2.34,1.24,4.11v1.01h-7.28c.08.92.38,1.65.92,2.18s1.22.8,2.03.8c1.15,0,2.08-.46,2.8-1.39l1.35,1.29c-.45.67-1.04,1.18-1.79,1.55s-1.58.55-2.51.55ZM83,11.76c-.69,0-1.24.24-1.66.72s-.69,1.15-.81,2.01h4.77v-.18c-.06-.84-.28-1.47-.67-1.9-.39-.43-.93-.64-1.63-.64Z" fill="#52cc60"/>
    <path d="M88.61,15.45c0-1.72.4-3.1,1.19-4.14.8-1.04,1.86-1.56,3.2-1.56,1.18,0,2.14.41,2.86,1.24v-5.71h2.5v15.82h-2.27l-.12-1.15c-.75.91-1.75,1.36-3,1.36s-2.36-.53-3.17-1.58c-.81-1.05-1.21-2.48-1.21-4.29ZM91.11,15.67c0,1.13.22,2.02.65,2.65s1.06.95,1.86.95c1.02,0,1.77-.46,2.25-1.37v-4.76c-.46-.89-1.2-1.34-2.23-1.34-.81,0-1.44.32-1.87.96s-.66,1.61-.66,2.9Z" fill="#52cc60"/>
  </g>
  <g>
    <path d="M9.91,8.95c-.56.58-1.08,1.14-1.62,1.68-.64.64-1.3,1.28-1.95,1.9-.31.29-.53.59-.51,1.06.04.83.02,1.67,0,2.51,0,.31.1.39.39.39,1.82-.01,3.64,0,5.46,0,.57,0,.62.06.62.63,0,.46,0,.92,0,1.38,0,.34-.11.52-.49.52-2.68,0-5.37,0-8.05,0-.32,0-.45-.1-.45-.44.01-2.09-.01-4.18.03-6.27,0-.27.24-.57.45-.79.76-.8,1.56-1.57,2.35-2.34.65-.64,1.31-1.26,1.96-1.89.46-.45.91-.89,1.35-1.36.33-.35.66-.4,1.01-.06.76.74,1.5,1.5,2.27,2.24.6.58,1.25,1.11,1.84,1.7.77.76,1.52,1.56,2.27,2.35.07.07.09.22.09.33,0,2.04,0,4.07,0,6.11,0,.35-.13.44-.45.43-.61-.02-1.21-.02-1.82,0-.36.01-.5-.12-.49-.49.02-1.51-.03-3.02.03-4.53.03-.74-.24-1.22-.76-1.69-.91-.82-1.77-1.69-2.66-2.54-.27-.26-.55-.52-.85-.81Z" fill="#52cc60"/>
    <path d="M9.96,21.29c.84,0,1.67,0,2.51,0,.15,0,.33.03.46.1.34.2.31.3.03.59-.44.44-.82.94-1.24,1.4-.51.56-1.04,1.1-1.58,1.64-.05.05-.27.02-.34-.05-.82-.89-1.64-1.8-2.45-2.71-.17-.19-.35-.39-.43-.62-.11-.3.14-.35.37-.35.89,0,1.78,0,2.67,0Z" fill="#52cc60"/>
  </g>
</svg>