<?xml version="1.0" encoding="UTF-8"?>
<svg id="Layer_1" data-name="Layer 1" xmlns="http://www.w3.org/2000/svg" viewBox="0 0 30 30">
  <g>
    <path d="M14.8,8.62c-.56.58-1.08,1.14-1.62,1.68-.64.64-1.3,1.28-1.95,1.9-.31.29-.53.59-.51,1.06.04.83.02,1.67,0,2.51,0,.31.1.39.39.39,1.82-.01,3.64,0,5.46,0,.57,0,.62.06.62.63,0,.46,0,.92,0,1.38,0,.34-.11.52-.49.52-2.68,0-5.37,0-8.05,0-.32,0-.45-.1-.45-.44.01-2.09-.01-4.18.03-6.27,0-.27.24-.57.45-.79.76-.8,1.56-1.57,2.35-2.34.65-.64,1.31-1.26,1.96-1.89.46-.45.91-.89,1.35-1.36.33-.35.66-.4,1.01-.06.76.74,1.5,1.5,2.27,2.24.6.58,1.25,1.11,1.84,1.7.77.76,1.52,1.56,2.27,2.35.07.07.09.22.09.33,0,2.04,0,4.07,0,6.11,0,.35-.13.44-.45.43-.61-.02-1.21-.02-1.82,0-.36.01-.5-.12-.49-.49.02-1.51-.03-3.02.03-4.53.03-.74-.24-1.22-.76-1.69-.91-.82-1.77-1.69-2.66-2.54-.27-.26-.55-.52-.85-.81Z" fill="#4d4d4d"/>
    <path d="M14.85,20.95c.84,0,1.67,0,2.51,0,.15,0,.33.03.46.1.34.2.31.3.03.59-.44.44-.82.94-1.24,1.4-.51.56-1.04,1.1-1.58,1.64-.05.05-.27.02-.34-.05-.82-.89-1.64-1.8-2.45-2.71-.17-.19-.35-.39-.43-.62-.11-.3.14-.35.37-.35.89,0,1.78,0,2.67,0Z" fill="#4d4d4d"/>
  </g>
  <g>
    <path d="M14.8,8.62c-.56.58-1.08,1.14-1.62,1.68-.64.64-1.3,1.28-1.95,1.9-.31.29-.53.59-.51,1.06.04.83.02,1.67,0,2.51,0,.31.1.39.39.39,1.82-.01,3.64,0,5.46,0,.57,0,.62.06.62.63,0,.46,0,.92,0,1.38,0,.34-.11.52-.49.52-2.68,0-5.37,0-8.05,0-.32,0-.45-.1-.45-.44.01-2.09-.01-4.18.03-6.27,0-.27.24-.57.45-.79.76-.8,1.56-1.57,2.35-2.34.65-.64,1.31-1.26,1.96-1.89.46-.45.91-.89,1.35-1.36.33-.35.66-.4,1.01-.06.76.74,1.5,1.5,2.27,2.24.6.58,1.25,1.11,1.84,1.7.77.76,1.52,1.56,2.27,2.35.07.07.09.22.09.33,0,2.04,0,4.07,0,6.11,0,.35-.13.44-.45.43-.61-.02-1.21-.02-1.82,0-.36.01-.5-.12-.49-.49.02-1.51-.03-3.02.03-4.53.03-.74-.24-1.22-.76-1.69-.91-.82-1.77-1.69-2.66-2.54-.27-.26-.55-.52-.85-.81Z" fill="#4d4d4d"/>
    <path d="M14.85,20.95c.84,0,1.67,0,2.51,0,.15,0,.33.03.46.1.34.2.31.3.03.59-.44.44-.82.94-1.24,1.4-.51.56-1.04,1.1-1.58,1.64-.05.05-.27.02-.34-.05-.82-.89-1.64-1.8-2.45-2.71-.17-.19-.35-.39-.43-.62-.11-.3.14-.35.37-.35.89,0,1.78,0,2.67,0Z" fill="#4d4d4d"/>
  </g>
  <g>
    <path d="M14.8,8.62c-.56.58-1.08,1.14-1.62,1.68-.64.64-1.3,1.28-1.95,1.9-.31.29-.53.59-.51,1.06.04.83.02,1.67,0,2.51,0,.31.1.39.39.39,1.82-.01,3.64,0,5.46,0,.57,0,.62.06.62.63,0,.46,0,.92,0,1.38,0,.34-.11.52-.49.52-2.68,0-5.37,0-8.05,0-.32,0-.45-.1-.45-.44.01-2.09-.01-4.18.03-6.27,0-.27.24-.57.45-.79.76-.8,1.56-1.57,2.35-2.34.65-.64,1.31-1.26,1.96-1.89.46-.45.91-.89,1.35-1.36.33-.35.66-.4,1.01-.06.76.74,1.5,1.5,2.27,2.24.6.58,1.25,1.11,1.84,1.7.77.76,1.52,1.56,2.27,2.35.07.07.09.22.09.33,0,2.04,0,4.07,0,6.11,0,.35-.13.44-.45.43-.61-.02-1.21-.02-1.82,0-.36.01-.5-.12-.49-.49.02-1.51-.03-3.02.03-4.53.03-.74-.24-1.22-.76-1.69-.91-.82-1.77-1.69-2.66-2.54-.27-.26-.55-.52-.85-.81Z" fill="#52cc60"/>
    <path d="M14.85,20.95c.84,0,1.67,0,2.51,0,.15,0,.33.03.46.1.34.2.31.3.03.59-.44.44-.82.94-1.24,1.4-.51.56-1.04,1.1-1.58,1.64-.05.05-.27.02-.34-.05-.82-.89-1.64-1.8-2.45-2.71-.17-.19-.35-.39-.43-.62-.11-.3.14-.35.37-.35.89,0,1.78,0,2.67,0Z" fill="#52cc60"/>
  </g>
  <g>
    <path d="M14.8,8.62c-.56.58-1.08,1.14-1.62,1.68-.64.64-1.3,1.28-1.95,1.9-.31.29-.53.59-.51,1.06.04.83.02,1.67,0,2.51,0,.31.1.39.39.39,1.82-.01,3.64,0,5.46,0,.57,0,.62.06.62.63,0,.46,0,.92,0,1.38,0,.34-.11.52-.49.52-2.68,0-5.37,0-8.05,0-.32,0-.45-.1-.45-.44.01-2.09-.01-4.18.03-6.27,0-.27.24-.57.45-.79.76-.8,1.56-1.57,2.35-2.34.65-.64,1.31-1.26,1.96-1.89.46-.45.91-.89,1.35-1.36.33-.35.66-.4,1.01-.06.76.74,1.5,1.5,2.27,2.24.6.58,1.25,1.11,1.84,1.7.77.76,1.52,1.56,2.27,2.35.07.07.09.22.09.33,0,2.04,0,4.07,0,6.11,0,.35-.13.44-.45.43-.61-.02-1.21-.02-1.82,0-.36.01-.5-.12-.49-.49.02-1.51-.03-3.02.03-4.53.03-.74-.24-1.22-.76-1.69-.91-.82-1.77-1.69-2.66-2.54-.27-.26-.55-.52-.85-.81Z" fill="#52cc60"/>
    <path d="M14.85,20.95c.84,0,1.67,0,2.51,0,.15,0,.33.03.46.1.34.2.31.3.03.59-.44.44-.82.94-1.24,1.4-.51.56-1.04,1.1-1.58,1.64-.05.05-.27.02-.34-.05-.82-.89-1.64-1.8-2.45-2.71-.17-.19-.35-.39-.43-.62-.11-.3.14-.35.37-.35.89,0,1.78,0,2.67,0Z" fill="#52cc60"/>
  </g>
</svg>